<svg width="297" height="59" viewBox="0 0 297 59" fill="none" xmlns="http://www.w3.org/2000/svg">
<path d="M23.0783 13.1341C23.0743 13.1462 23.0623 13.1581 23.0424 13.1661C22.9985 13.1859 22.9387 13.1779 22.8988 13.1421C22.8032 13.0226 22.6597 12.9588 22.5042 12.9588C22.2212 12.9588 21.986 13.1939 21.978 13.481C21.978 13.7681 22.2212 14.0112 22.5042 14.0112C22.6597 14.0112 22.8032 13.9435 22.8988 13.8318C22.9387 13.788 22.9985 13.78 23.0424 13.7998C23.0623 13.8119 23.0743 13.8238 23.0783 13.8358C23.0942 13.8438 23.1022 13.8598 23.1141 13.8717C23.1381 13.9195 23.1261 13.9752 23.0862 14.0192C22.9746 14.1109 22.9028 14.2584 22.9028 14.4098C22.9028 14.6967 23.1381 14.928 23.4251 14.936C23.7161 14.936 23.9553 14.7008 23.9553 14.4098C23.9553 14.2584 23.8914 14.1188 23.7799 14.0192C23.74 13.9832 23.728 13.9195 23.752 13.8717C23.756 13.8598 23.7679 13.8438 23.7799 13.8358C23.7918 13.8238 23.8037 13.8119 23.8197 13.7998C23.8675 13.78 23.9274 13.788 23.9592 13.8318C24.0589 13.9435 24.2024 14.0112 24.3539 14.0112C24.6449 14.0112 24.88 13.78 24.88 13.4929C24.884 13.198 24.6449 12.9588 24.3539 12.9588C24.2024 12.9588 24.0589 13.0226 23.9592 13.1341C23.9274 13.1779 23.8675 13.1859 23.8197 13.1661C23.8037 13.1581 23.7918 13.1462 23.7799 13.1341C23.7679 13.1223 23.756 13.1102 23.752 13.0983C23.728 13.0466 23.74 12.9907 23.7799 12.9549C23.8914 12.8552 23.9553 12.7157 23.9553 12.5642C23.9553 12.2691 23.7201 12.0379 23.437 12.0379C23.15 12.0299 22.9028 12.2691 22.9028 12.5642C22.9028 12.7157 22.9746 12.8552 23.0862 12.9549C23.1261 12.9907 23.1381 13.0466 23.1141 13.0983C23.1022 13.1102 23.0942 13.1223 23.0783 13.1341Z" fill="#567CA1"/>
<path d="M6.83799 0.973969L0.125 7.68301V27.83H46.7373V0.969971H6.83799V0.973961V0.973969ZM15.7514 19.1717C15.6278 19.1717 15.5242 19.072 15.5242 18.9444C15.5242 18.8168 15.6278 18.7172 15.7514 18.7172C15.879 18.7172 15.9787 18.8168 15.9787 18.9444C15.9787 19.072 15.879 19.1717 15.7514 19.1717ZM19.3112 20.4513C19.0122 21.384 18.4662 22.2172 17.7247 22.867L16.1182 24.2741C16.0504 24.334 15.9508 24.2661 15.9747 24.1786L16.6284 22.1455C16.9314 21.2126 17.4776 20.3756 18.215 19.7297L19.8215 18.3225C19.8893 18.2628 19.9929 18.3305 19.965 18.4182L19.3112 20.4513ZM16.5009 19.7656C16.5009 19.5384 16.6842 19.3511 16.9154 19.3511C17.1467 19.3511 17.334 19.5384 17.334 19.7656C17.334 19.9968 17.1467 20.1842 16.9154 20.1842C16.6842 20.1842 16.5009 19.9968 16.5009 19.7656ZM26.379 21.1649L24.2663 23.9433C24.0909 24.1706 23.7879 24.306 23.4531 24.306H23.4092C23.0744 24.306 22.7714 24.1706 22.596 23.9433L20.4833 21.1649C19.9371 20.4473 19.8415 19.5863 20.2201 18.8009L21.2487 16.6722C21.5357 16.0863 22.1336 15.7115 22.7873 15.7115H23.0465L23.3016 17.7206C23.3175 17.8721 23.5408 17.8721 23.5607 17.7206L23.8158 15.7115H24.075C24.7287 15.7115 25.3267 16.0863 25.6137 16.6722L26.6422 18.8009C27.0209 19.5863 26.9252 20.4473 26.379 21.1649ZM30.7401 24.2741L29.1337 22.867C28.6991 22.4844 28.3324 22.0378 28.0453 21.5475C27.8381 21.2047 27.6746 20.834 27.551 20.4513L26.8973 18.4182C26.8694 18.3305 26.973 18.2628 27.0408 18.3225L28.0453 19.2036L28.6473 19.7297C29.3847 20.3756 29.9309 21.2126 30.2299 22.1455L30.8836 24.1786C30.9116 24.2662 30.8079 24.334 30.7401 24.2741L30.7401 24.2741ZM29.5283 19.7656C29.5283 19.5384 29.7156 19.3511 29.9468 19.3511C30.174 19.3511 30.3614 19.5384 30.3614 19.7656C30.3614 19.9968 30.174 20.1842 29.9468 20.1842C29.7156 20.1842 29.5283 19.9968 29.5283 19.7656ZM31.1109 19.1717C30.9833 19.1717 30.8796 19.072 30.8796 18.9444C30.8796 18.8168 30.9833 18.7172 31.1109 18.7172C31.2344 18.7172 31.3381 18.8168 31.3381 18.9444C31.3381 19.072 31.2344 19.1717 31.1109 19.1717ZM31.649 13.0526L33.6382 15.9188C33.8016 16.158 33.8375 16.4889 33.7339 16.8038C33.7299 16.8118 33.7299 16.8197 33.7259 16.8277C33.7219 16.8356 33.7219 16.8436 33.7179 16.8516C33.6143 17.1665 33.391 17.4136 33.12 17.5094L29.8273 18.6614C29.2014 18.8767 28.5795 18.8448 28.0453 18.5697C27.85 18.4741 27.6667 18.3465 27.4992 18.1831L25.793 16.5446C25.3187 16.0902 25.1473 15.4086 25.3506 14.7827L25.4303 14.5355L27.4195 14.9183C27.5709 14.9461 27.6428 14.7348 27.4992 14.6671L25.6695 13.8061L25.7493 13.5589C25.9525 12.937 26.4907 12.4826 27.1405 12.3949L28.0453 12.2713L29.4844 12.072C30.3455 11.9524 31.1348 12.3112 31.649 13.0526ZM23.5408 9.62041L23.8876 7.687L23.9593 7.29236C24.1148 6.43524 24.6968 5.79748 25.5619 5.53442L28.9024 4.52985C29.1775 4.44615 29.5044 4.51389 29.7754 4.71321C29.7794 4.7172 29.7874 4.72118 29.7954 4.72517C29.7993 4.72916 29.8073 4.73306 29.8113 4.74104C30.0824 4.93646 30.2498 5.22347 30.2538 5.51047L30.3296 8.99852C30.3495 9.90343 29.923 10.6568 29.1576 11.0674L28.0453 11.6614L27.0727 12.1836C26.4947 12.4906 25.7931 12.4427 25.2629 12.06L25.0517 11.9085L26.0283 10.1347C26.104 9.9951 25.9207 9.86352 25.813 9.97914L24.4298 11.4541L24.2185 11.3026C23.6882 10.916 23.4252 10.2622 23.5408 9.62041L23.5408 9.62041ZM24.3978 12.3032C24.3978 12.3869 24.3938 12.4666 24.3699 12.5423C24.4656 12.5185 24.5653 12.5064 24.6609 12.5144C25.1831 12.5383 25.5818 12.9649 25.5818 13.4832C25.5818 14.0173 25.1473 14.4558 24.6091 14.4558C24.5294 14.4558 24.4537 14.4438 24.37 14.4239C24.3938 14.5196 24.4058 14.6113 24.3978 14.711C24.3779 15.2331 23.9514 15.6357 23.4292 15.6357C22.899 15.6357 22.4605 15.1972 22.4605 14.6631C22.4605 14.5834 22.4725 14.4996 22.4884 14.4239C22.3967 14.4478 22.301 14.4598 22.2014 14.4558C21.6832 14.4239 21.2766 14.0054 21.2766 13.4832C21.2766 12.945 21.715 12.5144 22.2492 12.5144C22.3289 12.5144 22.4126 12.5185 22.4884 12.5423C22.4645 12.4507 22.4526 12.351 22.4605 12.2513C22.4884 11.7292 22.9109 11.3345 23.4292 11.3345C23.9673 11.3345 24.3978 11.765 24.3978 12.3032V12.3032ZM16.5607 7.687L16.6085 5.51047C16.6125 5.22346 16.78 4.93646 17.051 4.74104C17.055 4.73306 17.063 4.72916 17.067 4.72517C17.075 4.72118 17.0829 4.7172 17.0869 4.71321C17.358 4.51389 17.6848 4.44616 17.9599 4.52985L21.3004 5.53442C22.1655 5.79748 22.7475 6.43524 22.903 7.29236L22.9747 7.687L23.3215 9.62041C23.4372 10.2622 23.1741 10.916 22.6439 11.3027L22.4326 11.4541L21.0453 9.97915C20.9417 9.86353 20.7583 9.99511 20.8341 10.1347L21.8107 11.9085L21.5994 12.06C21.0692 12.4427 20.3677 12.4906 19.7896 12.1836L17.7047 11.0674C16.9394 10.6568 16.5128 9.90343 16.5328 8.99852L16.5607 7.687ZM13.2241 15.9188L15.2133 13.0526C15.7275 12.3112 16.5168 11.9524 17.3779 12.072L19.7219 12.3949C20.3716 12.4826 20.9098 12.937 21.1131 13.5589L21.1928 13.8061L19.3631 14.6671C19.2196 14.7348 19.2913 14.9461 19.4428 14.9183L21.432 14.5355L21.5117 14.7827C21.715 15.4086 21.5436 16.0902 21.0692 16.5446L19.3631 18.1831C18.7372 18.7849 17.8881 18.9564 17.0351 18.6614L13.7423 17.5094C13.4713 17.4136 13.248 17.1665 13.1444 16.8516C13.1404 16.8436 13.1364 16.8356 13.1364 16.8276C13.1324 16.8197 13.1324 16.8118 13.1284 16.8038C13.0248 16.4889 13.0607 16.158 13.2241 15.9188Z" fill="#567CA1"/>
<path d="M120.005 27.8336H126.718V7.69066H146.669V0.973633H100.057V7.69066H120.005V27.8336Z" fill="#567CA1"/>
<path d="M96.7006 11.0471H56.8013V7.69066H96.7006V0.973633H50.0883V17.7601H89.9836V21.1166H50.0883V27.8336H96.7006V11.0471Z" fill="#567CA1"/>
<path d="M156.74 17.7565H189.923V27.83H196.64V7.68301L189.927 0.973961V0.969971H150.027V27.83H156.74V17.7565L156.74 17.7565ZM156.74 7.687H187.152L189.923 10.4575V11.0435H156.74V7.687Z" fill="#567CA1"/>
<path d="M206.71 7.69066H217.17L219.944 10.4651V27.8336H226.657V10.4651L229.432 7.69066H239.892V27.8336H246.605V0.973633H226.657V0.977524L223.301 4.33205L219.944 0.977524V0.973633H199.997V27.8336H206.71V7.69066Z" fill="#567CA1"/>
<path d="M256.674 17.7565H296.573V0.969971H249.961V27.83H256.674V17.7565V17.7565ZM256.674 7.687H289.857V11.0435H256.674V7.687Z" fill="#567CA1"/>
<path d="M150.031 37.9077H169.979V58.0506H176.692V37.9077H196.643V31.1907H150.031V37.9077Z" fill="#567CA1"/>
<path d="M0.124756 47.9771H40.0201V51.3336H0.124756V58.0506H46.7371V41.2642H6.8378V37.9077H46.7371V31.1907H0.124756V47.9771Z" fill="#567CA1"/>
<path d="M100.062 47.9771H139.958V51.3336H100.062V58.0506H146.675V41.2642H106.775V37.9077H146.675V31.1907H100.062V47.9771Z" fill="#567CA1"/>
<path d="M276.627 31.1907V31.1946L273.27 34.5491L269.914 31.1946V31.1907H249.966V58.0506H256.679V37.9077H267.139L269.914 40.6822V58.0506H276.627V40.6822L279.401 37.9077H289.861V58.0506H296.574V31.1907H276.627Z" fill="#567CA1"/>
<path d="M89.9888 41.2622H56.8104V31.1926H50.0935V47.9791H70.0411V58.0487H76.7581V47.9791H96.7058V31.1926H89.9888V41.2622Z" fill="#567CA1"/>
<path d="M206.713 37.9056H246.608V31.1926H200V58.0487H246.608V51.3355H206.713V47.9779H246.609V41.2634H206.713V37.9056Z" fill="#567CA1"/>
</svg>
